<svg width="1536" height="1024" viewBox="0 0 1536 1024" fill="none" xmlns="http://www.w3.org/2000/svg">
<path d="M670.047 247.489C681.987 256.72 691.47 262.338 707.354 262.656C706.488 266.441 704.339 269.379 702.095 272.431C695.626 266.761 685.619 262.092 677.493 255.732C674.623 252.805 672.568 250.699 670.047 247.489Z" fill="#F8F8F8"/>
<path d="M631.198 179.069C637.976 192.707 643.678 205.54 653.666 217.25C655.022 218.839 657.372 221.775 658.235 223.63C649.181 216.032 644.816 209.395 638.729 199.712C634.795 191.732 633.199 187.489 631.198 179.069Z" fill="#F8F8F8"/>
<path d="M904.235 179.069C897.457 192.707 891.755 205.54 881.767 217.25C880.411 218.839 878.061 221.775 877.198 223.63C886.252 216.032 890.617 209.395 896.704 199.712C900.638 191.732 902.234 187.489 904.235 179.069Z" fill="#F8F8F8"/>
<path d="M615.323 198.925C616.454 202.442 617.714 205.916 619.1 209.34C621.304 216.704 624.847 225.757 629.274 232.05C635.064 242.525 640.774 250.559 649.292 259.141L650.466 260.463C661.976 273.942 675.325 279.516 688.69 288.923C678.474 295.321 670.096 294.05 660.782 286.556C633.325 264.467 619.974 233.234 615.323 198.925Z" fill="#F8F8F8"/>
<path d="M922.002 199C920.871 202.517 919.611 205.991 918.225 209.415C916.02 216.778 912.477 225.831 908.05 232.124C902.26 242.599 896.55 250.632 888.031 259.214L886.857 260.536C875.347 274.015 861.997 279.589 848.632 288.995C858.848 295.393 867.226 294.122 876.541 286.628C903.999 264.54 917.351 233.308 922.002 199Z" fill="#F8F8F8"/>
<path d="M682.847 243.286C694.229 248.433 698.941 248.967 711.442 249.972C710.382 254.44 709.761 257.913 707.498 261.967C699.491 255.244 689.589 251.026 682.847 243.286Z" fill="#F8F8F8"/>
<path d="M673.478 260.963C684.84 269.309 689.672 269.095 701.705 273.314C700.129 275.396 698.044 278.304 696.384 280.234C688.907 274.7 679.99 268.464 673.314 262.145L673.478 260.963Z" fill="#F8F8F8"/>
<path d="M666.888 266.912C669.492 268.357 672.468 270.84 675.737 272.678C681.5 275.918 687.709 278.408 693.16 281.882C693.721 282.239 693.66 283.297 693.792 284.204C692.314 284.936 691.996 284.891 690.395 285.142C681.827 282.923 672.251 273.662 666.888 266.912Z" fill="#F8F8F8"/>
<path d="M852.548 243.96L853.087 244.285C849.978 247.818 833.215 260.277 828.677 260.694C827.194 257.364 826.042 253.323 824.938 249.8C837.176 248.96 841.286 248.865 852.548 243.96Z" fill="#F8F8F8"/>
<path d="M863.836 249.133C863.342 254.928 838.551 271.217 833.042 271.029L829.522 262.995C843.213 262.243 853.45 258.029 863.836 249.133Z" fill="#F8F8F8"/>
<path d="M862.025 261.918L862.044 262.874C859.232 266.339 843.007 279.771 839.27 279.267C838.011 277.615 837.243 276.296 836.171 274.51C837.173 272.732 842.857 271.153 845.109 270.376C851.672 268.111 856.26 265.897 862.025 261.918Z" fill="#F8F8F8"/>
<path d="M869.26 267.201C867.216 273.513 850.983 284.811 844.211 285.566C843.394 283.919 843.213 283.872 843.355 281.996C851.786 276.592 858.834 274.393 869.26 267.201Z" fill="#F8F8F8"/>
<path d="M905.515 112.577C914.939 119.217 922.767 127.42 928.081 137.735C925.773 139.044 924.619 139.859 921.953 140.344C917.71 130.011 911.429 121.949 905.515 112.577Z" fill="#F8F8F8"/>
<path d="M735.949 443.89C739.875 443.263 743.124 443.512 744.36 448.05C743.722 456.616 728.581 463.61 722.021 467.319C721.192 467.788 722.818 479.022 716.605 479.903C707.752 476.63 711.312 467.433 715.47 461.851C721.511 455.867 728.793 448.302 735.949 443.89Z" fill="#F8F8F8"/>
<path d="M754.49 433.344C756.466 427.695 757.633 423.026 763.568 420.159C771.74 416.211 783.213 424.513 780.952 433.525C780.027 434.378 779.388 434.986 778.383 435.767C770.39 434.502 758.225 436.91 754.49 433.344Z" fill="#F8F8F8"/>
<path d="M794.878 443.191C804.955 443.935 822.087 459.852 824.682 469.85C825.683 473.704 824.374 476.385 822.339 479.448C814.304 479.181 814.441 472.953 814.499 466.7C806.145 463.386 786.592 454.886 794.878 443.191Z" fill="#F8F8F8"/>
<path d="M764.235 398.395C768.736 397.783 776.87 398.738 779.034 403.135C776.829 403.894 774.936 402.852 772.27 402.14C764.503 401.399 762.048 402.889 754.718 405.31C758.541 401.993 759.866 400.828 764.235 398.395Z" fill="#F8F8F8"/>
<path d="M743.347 490.139C747.496 479.043 758.464 472.015 770.275 472.882C782.087 473.749 791.911 482.305 794.395 493.887C796.879 505.47 791.429 517.303 781.013 522.941C770.597 528.578 757.711 526.668 749.377 518.252C742.057 510.859 739.703 499.884 743.347 490.139Z" fill="#F8F8F8"/>
<path d="M683.294 532.441L682.173 529.976C683.446 527.486 691.984 524.983 694.813 526.638C693.923 529.762 687.74 531.825 684.932 532.959L683.294 532.441Z" fill="#F8F8F8"/>
<path d="M637.816 460.251C632.668 457.518 626.887 455.194 623.843 450.272C624.04 445.217 629.977 445.458 633.976 445.226C630.966 447.869 630.745 447.262 629.681 450.57C630.42 454.682 634.994 456.842 637.816 460.251Z" fill="#F8F8F8"/>
<path d="M659.872 476.422C663.783 476.08 665.532 475.728 668.697 477.966L668.355 478.701C665.769 479.185 664.645 479.083 662.808 481.165C662.602 482.63 662.339 484.029 662.072 485.481L660.702 486.182C656.66 483.305 657.859 479.904 659.872 476.422Z" fill="#F8F8F8"/>
<path d="M659.045 400.357C660.296 401.431 667.851 414.296 669.243 416.575C663.578 414.488 659.984 405.878 659.045 400.357Z" fill="#F8F8F8"/>
<path d="M670.937 531.009C671.974 536.803 665.012 538.424 660.409 540.452L660.293 539.126C661.23 536.386 668.241 532.664 670.937 531.009Z" fill="#F8F8F8"/>
<path d="M865.515 531.435C868.534 533.084 872.565 534.872 874.429 537.614L874.296 538.92C870.925 539.272 866.66 535.838 864.247 533.623L865.515 531.435Z" fill="#F8F8F8"/>
<path d="M922.8 533.87C925.392 535.814 929.071 538.319 930.993 540.784L931.008 542.12C928.346 543.106 924.358 542.228 921.509 541.652L919.905 542.995C920.778 547.484 926.932 545.708 923.429 550.954C920.21 552.631 919.799 551.354 917.022 548.807L915.442 548.9L913.903 550.763C915.103 554.623 917.5 552.753 917.508 556.535C915.828 558.501 915.553 558.63 913.038 559.256C910.719 558.957 908.791 558.478 907.349 556.427L907.625 554.024C913.513 550.218 918.061 539.394 922.8 533.87Z" fill="#F8F8F8"/>
<path d="M902.529 445.692C906.265 445.423 909.632 445.041 912.429 447.985C913.883 453.709 908.572 455.108 904.258 456.999C903.305 457.522 902.247 457.976 901.253 458.434C903.275 455.621 905.749 455.241 906.744 450.226C905.674 447.414 905.172 447.696 902.529 445.692Z" fill="#F8F8F8"/>
<path d="M871.69 475.593C874.391 475.782 874.86 475.751 877.015 477.337C879.503 481.747 878.641 483.858 874.763 487.266C874.068 476.377 869.759 481.212 868.371 477.416L871.69 475.593Z" fill="#F8F8F8"/>
<path d="M851.123 532.872C848.11 531.661 845.272 530.886 843.295 528.36L843.152 527.086C846.369 525.873 850.798 527.161 854.127 527.962C854.276 530.267 853.953 530.652 853.054 532.873L851.123 532.872Z" fill="#F8F8F8"/>
<path d="M876.53 402.129C876.865 402.392 876.846 402.941 876.98 403.559C875.411 408.525 872.951 411.904 869.432 415.633L869.031 415.28C869.578 413.235 875.106 404.489 876.53 402.129Z" fill="#F8F8F8"/>
<path d="M732.91 276.706L733.119 278.144C727.846 287.679 719.12 295.127 709.447 299.959L709.259 299.185C721.385 289.823 722.796 288.701 732.91 276.706Z" fill="#F8F8F8"/>
<path d="M644.561 385.988L646.073 385.587C647.051 390.821 648.946 394.78 649.492 400.32C646.958 395.526 645.566 391.273 644.561 385.988Z" fill="#F8F8F8"/>
<path d="M898.024 542.916C898.563 545.623 896.874 552.347 896.234 555.412C894.595 550.913 896.326 547.155 898.024 542.916Z" fill="#F8F8F8"/>
<path d="M643.784 104.049C638.701 114.386 636.354 125.854 636.967 137.356C638.422 168.493 652.669 189.638 674.897 209.81C711.344 181.927 764.653 178.901 808.263 186.97C827.43 190.516 844.829 198.658 860.818 209.613C885.127 190.883 901.629 159.543 898.677 128.473C898.364 125.18 893.796 107.174 893.271 105.979L894.486 106.984C894.675 107.061 894.866 107.138 895.058 107.215C904.56 120.723 906.439 127.682 906.459 144.775C904.306 167.971 898.971 180.1 887.399 200.047L893.266 202.726V202.727L887.399 200.047C883.72 204.725 880.198 209.255 876.31 213.73L875.528 214.625C869.515 220.105 863.586 225.522 856.836 230.105C842.211 239.258 837.764 240.752 821.237 245.57C824.696 264.239 831.913 280.236 847.621 291.673C869.773 307.8 895.116 278.552 905.764 261.729C911.935 252.106 916.978 241.804 920.792 231.028C923.819 221.455 926.209 211.693 927.947 201.805V201.804C929.225 191.103 929.344 183.764 929.266 172.972C928.314 162.334 927.382 154.186 923.412 144.283L923.017 143.319L921.953 140.344C924.503 139.88 925.67 139.114 927.787 137.902C927.788 137.904 927.789 137.906 927.79 137.907C931.383 144.678 934.093 151.883 935.853 159.345C942.671 189.108 935.635 225.007 921.963 251.795C918.315 258.941 913.505 266.46 909.219 273.316C911.441 278.306 912.92 282.74 914.682 287.89C933.22 274.099 935.991 267.729 949.954 251.604C950.045 252.055 950.13 252.51 950.21 252.965C955.044 280.704 950.481 312.209 939.469 337.82C937.012 343.533 929.599 359.461 929.251 364.037C928.489 374.051 933.462 391.128 929.29 401.723C926.421 409.009 914.975 419.674 909.527 425.318C909.102 425.759 909.06 430.381 909.273 431.42C909.72 433.607 912.721 433.831 914.803 433.826C924.411 433.8 936.793 440.378 944.993 445.61C957.264 453.439 970.434 465.999 973.352 480.937C977.936 504.397 963.035 534.226 950.151 553.177C938.168 570.803 914.832 597.096 893.142 601C875.306 604.21 860.432 593.112 846.834 584.124C843.549 581.953 833.765 579.709 829.661 576.564C824.062 572.272 823.29 563.551 822.196 556.853C804.738 572.667 790.099 579.577 765.785 579.55C747.142 579.53 726.651 570.245 713.712 556.619C712.906 562.2 711.776 569.179 708.809 574.145C705.436 579.653 696.026 579.716 691.23 582.909C670.911 596.433 650.647 612.35 626.799 595.179C596.573 573.416 571.745 539.492 563 502.958C556.691 476.601 571.774 456.896 593.424 444.225C604.602 437.662 614.748 435.563 627.187 433.112L627.506 425.157C619.793 420.162 615.045 414.046 609.756 406.606C600.879 394.121 610.686 380.274 607.211 365.242C604.714 354.443 599.988 346.176 595.614 336.062C585.495 312.661 580.993 276.502 586.469 251.51C592.934 260.178 612.476 281.979 621.321 287.366C623.21 281.619 624.034 279.344 626.849 273.85C608.623 243.391 597.039 219.063 597.408 182.263C597.634 159.851 604.467 136.859 621.052 121.104C622.782 119.461 624.495 117.595 626.719 117.665L627.195 119.207C627.22 119.21 627.245 119.211 627.269 119.214C624.43 121.554 623.726 123.061 621.794 126.308C618.009 132.46 615.773 137.049 613.147 143.846C601.519 178.964 607.801 217.632 624.148 250.226C633.456 268.783 661.524 306.73 685.725 293.69C702.222 284.802 712.523 263.338 715.922 245.59C701.276 241.778 694.56 238.606 681.179 231.229C656.65 213.645 645.885 199.396 635.276 171.595C631.247 159.795 630.235 150.898 629.782 138.636C630.813 131.15 633.994 121.681 634.804 117.001C637.114 112.812 642.366 105.984 643.784 104.049ZM608.765 480.068C600.911 474.023 592.933 469.073 582.855 469.586C580.359 470.931 578.203 471.787 576.489 473.99L577.088 474.932C598.956 477.161 606.532 490.464 619.684 503.342C632.409 515.802 662.402 572.727 629.588 571.416C608.486 570.572 574.171 514.612 577.51 493.894C579.877 479.212 598.216 487.649 605.254 491.936C596.769 483.102 571.774 464.741 571.698 491.064C571.648 508.002 582.813 528.502 591.424 542.971C598.271 553.346 604.509 562.521 614.013 570.687L614.457 570.562L613.056 567.384C617.871 568.149 634.849 586.941 643.164 579.685C653.419 570.733 644.102 545.996 641.19 536.132C646.477 545.144 650.326 557.825 653.944 567.814C655.681 572.612 654.861 587.304 647.454 585.776L647.879 582.971C645.461 582.529 640.973 584.87 638.523 585.085C635.335 585.364 630.476 584.269 627.334 583.617C645.255 599.814 662.849 591.93 659.019 566.936C653.94 533.782 635.105 500.951 608.765 480.068ZM917.18 489.418C914.013 492.811 907.048 500.405 904.432 504.534L904.193 504.923C902.347 507.468 900.425 510.011 898.646 512.632C898.251 513.214 897.862 513.8 897.483 514.392C896.536 515.87 895.648 517.378 894.856 518.93V518.931C889.028 528.734 886.73 534.766 882.467 545.292C878.795 555.838 874.712 574.624 879.61 585.009C885.715 597.952 901.706 589.376 909.719 583.184C900.297 585.591 898.471 586.794 889.94 582.674C889.688 584.109 889.955 584.732 890.294 586.129L889.541 586.684C874.812 583.684 883.779 557.23 888.759 548.638L888.993 548.242C887.526 554.693 886.523 558.916 885.916 565.514C888.639 558.557 890.554 550.399 893.225 543.206C896.577 534.178 900.4 527.974 905.313 519.694L907.284 516.215C913.664 506.522 919.702 499.966 927.558 491.317L917.18 489.418ZM935.72 448.32C899.271 427.912 870.048 458.876 853.668 487.666L852.898 489.035C851.46 491.362 848.69 495.564 847.774 497.94C840.967 511.464 821.188 566.148 843.052 572.622L843.508 572.287C843.412 568.166 838.367 565.413 837.697 562.201C836.364 555.811 837.468 545.847 838.009 539.294C840.554 540.736 842.517 542.11 845.457 542.315C850.1 540.739 850.157 537.406 851.123 532.872L853.053 532.873C851.268 542.995 849.01 560.264 852.61 569.873C855.564 577.754 860.219 580.122 867.302 583.315C863.233 580.193 860.42 578.237 858.173 573.529C851.067 558.638 857.05 534.004 862.207 519.154C865.49 509.201 871.733 499.149 877.19 490.336C883.342 480.897 895.879 467.276 905.199 460.956C918.236 452.115 928.088 450.825 942.996 453.468C940.708 451.578 938.307 449.768 935.72 448.32ZM636.008 443.486C619.325 439.355 607.526 443.468 593.885 452.834C621.294 449.273 630.596 458.377 649.256 476.946C652.868 481.463 656.35 485.629 659.427 490.542C673.755 513.481 685.08 538.315 680.689 567.155C679.305 576.241 674.62 577.817 669.209 582.933C676.203 579.928 681.133 577.555 684.049 569.837C687.86 559.754 685.117 542.917 683.294 532.44L684.931 532.959C685.67 537.332 685.805 540.793 690.157 542.478C693.149 542.29 695.733 540.345 698.33 538.754C699.924 550.893 701.169 561.26 693.399 571.359L692.845 572.071L693.719 572.512C710.67 566.748 700.693 531.107 697.042 518.571C692.996 506.687 689.514 499.505 683.569 488.412C673.866 470.43 656.253 449.172 636.008 443.486ZM959.534 473.083C945.063 462.811 926.737 478.81 917.18 489.418L927.558 491.316C932.706 487.153 939.151 482.38 945.023 479.4L945.024 479.401L947.584 479.337L947.889 479.831C939.087 484.249 937.249 485.828 930.275 492.857C938.252 488.333 953.499 479.224 958.983 491.869C959.478 491.587 959.868 491.376 960.199 491.22C959.868 491.376 959.478 491.587 958.983 491.869C962.748 526.605 900.256 606.456 892.095 555.749C891.806 556.579 891.535 557.415 891.281 558.257C889.735 563.406 888.468 571.536 891.376 576.169C898.503 587.522 917.34 571.516 923.997 566.979L923.138 568.333C924.31 567.499 925.463 566.637 926.594 565.748C939.342 555.678 956.29 526.278 961.088 510.472C963.251 503.344 963.942 498.326 964.782 491.019V491.018C966.671 475.377 955.179 477.404 944.418 478.579L945.097 478.188C952.015 474.268 955.186 476.839 959.66 474.255L959.534 473.083ZM751.751 552.465C743.087 552.869 735.519 553.106 726.859 553.003C730.856 556.767 739.745 564.498 745.296 564.757C747.201 561.138 749.686 555.31 755.006 557.106C755.006 558.801 751.195 564.342 749.869 567.515C762.487 571.737 771.418 571.849 784.36 568.644C789.971 564.517 783.167 561.048 784.065 557.083C786.42 556.034 785.251 556.137 787.677 556.631C789.75 560.122 789.744 561.904 792.566 563.926C797.28 564.216 804.54 558.199 808.077 555.083C808.851 554.4 809.6 553.688 810.322 552.95C801.417 553.891 793.452 553.013 784.527 552.827C773.599 552.599 762.677 552.754 751.751 552.465ZM607.03 502.649C601.877 498.542 593.971 490.966 587.4 495.294C578.808 509.288 609.95 556.822 624.318 564.237C644.485 574.643 638.899 546.856 632.554 539.044L632.22 536.624C632.005 535.404 631.548 534.497 631.058 533.686C630.895 533.415 630.729 533.155 630.566 532.897C630.485 532.769 630.404 532.641 630.326 532.513C630.17 532.256 630.022 531.997 629.89 531.729C629.561 531.06 629.332 530.33 629.325 529.414C623.902 519.387 620.159 513.383 612.209 505.136C609.954 507.5 608.4 509.788 605.352 510.326L603.251 509.81C602.202 507.727 602.389 508.648 602.93 506.076C604.523 504.247 604.982 503.975 607.03 502.649ZM948.431 492.949C942.246 492.37 933.881 498.9 929.219 502.676C932.714 504.798 935.034 505.224 934.945 509.554C930.643 513.061 927.1 507.962 924.383 504.969C915.523 514.465 909.861 523.704 905.629 535.888C909.424 535.922 909.058 536.386 911.643 539.467L913.076 539.464C914.616 537.636 914.172 538.444 914.4 535.763C911.943 531.549 911.21 534.678 908.534 531.392C909.731 528.431 908.954 529.153 911.312 527.677C914.612 527.826 917.949 530.924 920.689 533.032C918.802 536.191 907.957 552.495 907.625 554.023L907.348 556.427L902.762 553.754C897.279 555.657 898.164 566.875 908.113 566.115C923.933 564.907 961.641 500.78 948.431 492.949ZM925.126 462.232C913.601 456.652 891.286 480.597 884.331 489.162C881.254 493.331 879.068 496.214 876.543 500.798C873.103 506.794 870.097 512.086 867.502 518.552C866.303 522.025 864.55 526.363 864.393 529.932C864.61 530.238 865.268 531.232 865.514 531.435L864.247 533.623C861.663 536.587 861.63 542.329 861.354 546.205C865.524 548.332 870.568 551.082 874.772 552.942C875.96 548.992 877.121 545.031 878.254 541.064C881.301 533.832 884.939 526.625 888.395 519.557C895.72 506.772 900.048 500.055 909.289 488.558C918.628 481.989 914.171 477.578 907.536 472.418L907.857 471.496C916.415 468.582 916.163 476.19 919.704 477.709C924.071 472.749 919.024 470.423 916.778 466.267C921.093 464.318 922.014 467.474 926.874 468.864L927.37 467.74C926.97 464.94 927.01 464.274 925.126 462.232ZM638.601 474.266C634.05 470.098 617.977 456.41 610.619 464.506C609.313 465.943 609.709 467.632 609.867 469.428L610.691 469.799C614.576 466.702 616.618 463.878 621.526 465.964C620.581 468.552 617.033 468.607 615.664 472.241C615.599 474.795 615.488 475.309 616.88 477.403C619.784 477.228 620.257 472.891 625.071 470.83C627.901 470.755 626.869 470.643 629.57 472.128L629.353 472.846C617.427 478.204 621.962 483.645 629.049 491.398C636.715 500.124 643.214 509.811 648.385 520.213C654.352 530.356 658.084 541.549 661.791 552.629C665.483 551.079 671.188 548.952 674.275 546.688C676.42 542.011 673.754 534.484 672.368 529.666C666.448 508.432 654.759 489.256 638.601 474.266ZM905.629 535.889C904.753 539.203 901.75 546.18 903.451 549.041C904.198 549.045 904.589 549.165 905.162 548.89C907.21 546.76 908.159 546.478 908.711 543.897C906.528 540.379 905.706 540.14 905.629 535.889ZM800.675 475.344C782.267 453.068 752.691 453.372 735.206 476.213C732.302 481.106 731.082 483.464 728.845 488.711C727.218 495.761 726.219 500.91 726.895 508.215C727.889 519.057 733.184 529.049 741.596 535.958C760.267 551.077 786.146 547.448 801.302 529.232C813.153 514.929 812.371 489.496 800.675 475.344ZM710.37 500.647C707.282 520.954 715.041 538.622 736.052 543.915C729.972 535.868 719.598 531.709 716.315 519.767C714.581 513.463 716.297 504.129 710.37 500.647ZM825.177 500.789C819.629 509.169 821.129 520.342 814.72 529.699C812.373 533.126 800.878 542.818 800.712 543.43L800.941 543.665C819.652 539.394 829.881 520.02 826.135 501.759L825.177 500.789ZM778.357 396.48C760.862 381.282 751.125 407.312 744.689 417.69C742.342 421.449 739.586 424.936 736.473 428.089C727.562 437.216 714.191 445.383 706.957 454.267V454.268L702.395 459.704C703.491 455.024 704.422 452.25 706.065 447.706C694.123 446.503 689.899 445.324 679.392 439.85L679.391 439.849C665.706 431.098 657.698 421.349 648.608 408.188C653.924 424.337 663.266 436.428 677.218 446.038L678.582 446.96C684.612 452.905 692.734 451.039 696.385 460.291C695.863 459.92 695.362 459.563 694.875 459.219C694.387 458.874 693.914 458.542 693.449 458.219C692.984 457.895 692.529 457.581 692.076 457.272C691.17 456.656 690.276 456.065 689.349 455.475C688.422 454.884 687.462 454.296 686.424 453.686C686.164 453.533 685.9 453.379 685.63 453.224C685.36 453.068 685.084 452.911 684.802 452.751C687.088 455.051 690.401 459.026 692.517 461.065C696.546 464.948 703.553 481.407 707.282 483.15C711.252 483.944 716.762 489.378 721.039 492.324C728.979 467.689 738.506 457.398 764.018 452.511C792.151 452.461 807.527 465.253 815.31 491.945C817.178 490.87 820.256 489.211 821.733 487.734C824.981 484.49 828.98 483.707 832.509 481.313C836.223 473.548 838.843 467.77 843.999 460.784C846.812 458.042 849.542 454.953 852.204 452.04C849.15 454.181 845.181 457.185 841.877 458.673L841.876 458.229C845.24 452.545 854.954 449.859 860.385 445.474C873.178 435.146 884.52 423.858 888.642 407.515C872.945 429.631 860.37 445.787 830.824 447.403L835.241 460.939C822.589 444.707 811.312 439.899 797.666 425.282C790.004 417.69 786.208 403.3 778.357 396.48ZM853.819 489.335L853.818 489.336L853.819 489.335ZM871.837 357.099C871.521 365.59 871.988 372.706 869.424 380.949C861.176 407.463 835.466 406.262 813.273 402.005C824.923 408.878 835.687 409.064 848.766 408.875C839.657 412.464 830.292 412.524 820.767 410.681C807.112 405.953 806.302 403.553 796.759 392.79C800.386 400.618 801.488 403.244 807.637 409.56C803.891 407.055 801.951 405.866 798.648 402.639C795.623 399.685 792.174 390.885 790.165 390.455C788.792 393.604 789.513 398.465 790.721 401.652C795.884 415.28 804.373 424.217 817.747 430.113C818.653 430.514 819.577 430.873 820.516 431.19C827.324 432.78 844.138 434.268 849.739 429.195L853.135 428.595L853.202 429.52C848.59 432.864 841.093 435.446 835.5 436.53C833.406 436.95 830.893 437.053 829.574 438.291C832.114 439.132 833.226 439.02 835.861 439.017C867.131 437.301 886.066 402.819 886.682 374.517L878.751 374.38C876.372 385.879 873.44 391.423 864.531 399.478C874.084 384.36 877.378 374.778 871.837 357.099ZM652.002 355.283C649.833 364.826 648.734 373.507 650.692 383.217C657.59 417.429 674.861 440.286 711.232 438.684C697.084 435.941 692.059 435.613 680.228 427.234C694.704 433.227 704.652 434.873 719.913 429.293C732.28 424.77 750.819 404.581 746.42 390.865L745.491 390.036C740.222 401.5 740.846 400.888 729.482 409.343C731.205 407.288 734.364 403.738 735.616 401.562C737.212 398.16 738.955 394.595 740.42 391.155C724.867 412.079 712.679 415.386 686.934 409.127C702.659 408.843 710.498 408.741 725.029 401.523C700.381 406.007 671.879 408.114 665.555 376.563C664.248 370.048 665.247 363.463 663.922 357.051C659.815 375.143 660.9 384.437 672.277 399.332C650.007 380.535 661.867 364.269 652.002 355.283ZM640.389 413.901C637.812 423.563 646.86 433.711 654.954 437.675C655.012 437.785 640.96 415.157 640.389 413.901ZM895.246 415.354C893.038 419.839 890.686 424.866 887.847 428.956C885.953 431.684 883.216 433.818 881.577 436.698L882.173 437.381C888.696 433.94 898.623 423.996 895.97 416.073L895.246 415.354ZM592.68 271.444C592.722 277.178 592.829 282.156 593.198 287.888C593.61 300.976 598.186 318.56 603.123 330.808C607.98 342.861 615.322 356.64 616.748 369.494C617.629 377.427 615.65 388.347 614.873 396.69C618.142 403.738 623.033 409.802 628.144 415.583C631.213 410.024 635.162 401.904 637.157 395.967C634.89 392.74 627.977 383.096 626.91 379.835C623.56 369.591 620.916 358.829 617.547 348.431C610.823 327.679 602.207 312.867 599.546 291.014C606.645 297.057 616.54 304.95 622.584 311.685L622.455 301.223C618.069 296.774 610.889 290.558 606.051 286.41C601.614 281.458 597.032 276.452 592.68 271.444ZM944.155 271.495C933.483 283.813 926.026 290.531 914.55 301.938L913.633 311.788C919.956 305.194 929.842 297.321 936.991 290.389C934.436 311.97 923.976 330.999 917.948 351.692C915.873 358.816 912.778 365.03 911.677 372.34L911.578 373.051C909.895 379.384 907.691 383.146 904.193 388.688C902.556 391.448 900.825 394.247 899.371 397.101C902.324 402.957 905.063 408.327 907.604 414.303C907.774 414.701 907.943 415.102 908.11 415.506C911.924 411.235 913.739 409.037 917.057 404.312L917.056 404.312H917.057C923.047 397.114 919.839 385.752 919.393 375.378L919.359 374.377L919.406 373.531C920.499 355.899 927.7 346.654 933.537 330.38C940.764 310.229 943.907 292.75 944.155 271.495ZM891.185 351.581C892.056 372.278 892.332 380.471 886.714 400.627L887.267 400.854L887.347 400.796C892.548 387.539 897.233 366.411 892.302 352.692L891.185 351.581ZM785.087 377.917C782.672 379.924 780.527 381.191 779.656 384.082C780.051 385.033 780.146 385.431 780.711 386.288C782.926 384.111 784.573 382.753 785.87 379.879C785.632 378.265 786.032 378.796 785.087 377.917ZM644.694 350.75C639.827 356.493 642.962 378.385 644.56 385.988L646.073 385.587C641.961 371.785 645.884 362.367 644.694 350.75ZM750.805 377.795C751.038 381.609 753.231 383.668 756.632 385.122C756.312 381.358 754.74 378.869 750.805 377.795ZM768.124 261.585C762.073 276.48 757.854 285.867 746.119 297.515L752.092 307.903C749.292 305.458 746.983 303.239 743.719 301.436C736.184 307.635 723.616 315.492 722.48 324.885C722 328.852 723.347 332.957 723.093 336.448C718.977 333.669 717.416 330.591 716.46 325.795C716.314 325.057 716.186 324.315 716.073 323.571L707.363 327.294C695.129 330.791 692.144 335.406 700.628 346.678C704.36 351.527 708.526 354.014 713.498 357.493C704.562 354.024 701.033 352.39 694.447 345.393C691.4 340.748 690.634 338.355 688.742 333.235C685.353 333.521 682.319 333.79 678.953 334.281C671.151 334.646 663.338 334.726 655.53 334.519C660.212 343.983 662.262 345.191 671.294 350.399C653.564 345.482 657.257 342.77 646.161 330.311C656.376 359.337 669.221 351.3 694.356 358.803C709.192 363.232 735.836 390.151 746.863 366.186C749.229 360.861 748.81 351.547 748.785 345.648C751.029 332.551 750.52 327.704 745.587 315.183C756.245 327.402 755.481 336.701 755.439 352.294C755.417 353.107 755.4 353.867 755.387 354.588C755.3 359.632 755.458 362.741 756.068 368.394C756.926 369.56 757.615 370.518 758.287 371.351C758.421 371.517 758.556 371.679 758.69 371.836C758.938 372.126 759.189 372.401 759.449 372.666C760.593 373.834 761.921 374.793 764.092 375.898C771.601 377.958 775.581 375.091 779.736 369.292C781.1 362.032 780.73 353.568 780.679 346.09C781.596 333.077 782.253 327.097 789.878 315.918C789.118 318.613 787.224 324.689 787.098 327.37C786.575 338.414 785.753 358.284 790.572 368.083C796.238 379.605 812.278 376.056 820.348 370.098C827.282 365.72 833.514 361.651 841.293 359.005C856.47 353.842 875.578 357.546 884.916 341.62C887.006 338.054 889.285 334.32 889.744 330.106C884.9 336.948 877.728 349.879 868.226 348.502C871.164 344.72 874.285 347.056 879.103 337.763C879.654 336.687 880.171 335.594 880.651 334.485C867.725 334.715 860.221 334.541 847.461 332.924C842.532 347.571 838.111 351.031 823.857 356.782C825.548 354.683 831.86 350.695 835.742 346.191C838.801 342.253 842.151 335.505 838.895 330.893C836.761 329.476 822.892 324.57 820.85 324.406L819.139 330.213C817.633 333.159 814.924 336.777 812.957 339.578C815.885 329.272 817.747 323.993 809.454 315.583C804.269 310.868 798.013 305.483 792.525 301.15C789.448 303.436 787.241 305.196 784.372 307.733C786.197 304.318 788.102 300.557 790.179 297.332C778.983 285.433 774.317 276.544 768.124 261.585ZM883.72 357.362C879.979 359.544 879.274 370.484 878.751 374.38L886.682 374.516C886.736 372.037 886.696 369.556 886.561 367.08C886.354 363.857 886.191 359.517 883.72 357.362ZM634.868 333.662C631.773 342.8 627.463 359.158 631.753 368.204C633.18 362.769 638.433 337.371 634.868 333.662ZM901.373 334.243C900.099 339.615 902.434 364.031 905.03 367.649L905.537 367.727C907.387 360.468 906.906 339.102 901.373 334.243ZM610.068 310.317C611.225 315.995 617.788 340.706 620.687 343.246L621.297 342.965C623.905 328.331 623.536 318.78 610.068 310.317ZM926.045 310.466C912.599 319.436 911.749 327.368 915.905 342.281L916.885 342.019C918.851 336.931 926.394 314.998 926.045 310.466ZM755.594 245.85C736.618 296.814 699.526 324.78 643.863 320.005C634.731 319.222 639.96 293.735 638.247 289.604C636.762 290.559 636.779 291.736 636.082 293.745C634.956 300.425 633.75 311.967 637.76 318.016C640.632 322.346 652.074 323.492 657.212 324.092C702.661 329.396 749.784 298.707 755.574 251.618C755.842 249.444 755.945 248.028 755.594 245.85ZM780.869 246.649C782.983 269.907 791.694 288.288 809.856 303.431C828.425 318.754 852.246 326.214 876.236 324.22C896.563 322.334 904.177 321.389 901.329 298.562C901.021 296.272 900.607 293.996 900.089 291.743L898.4 289.091L897.444 289.224C896.945 297.549 901.916 311.399 895.382 317.751C890.595 322.403 874.308 320.68 867.928 319.99C841.89 317.404 817.992 304.428 801.637 283.997C796.043 277.037 791.055 268.622 787.299 260.503C786.113 257.939 782.446 248.04 780.869 246.649ZM802.956 276.647C807.032 284.441 817.836 296.994 826.684 299.32C820.043 294.066 813.985 288.92 808.364 282.553C807.112 281.134 804.229 277.533 802.956 276.647ZM777.67 195.838C767.635 196.077 751.143 195.182 741.617 196.413C721.716 198.732 702.088 204.328 687.469 218.728C696.802 215.201 705.758 210.901 715.082 207.445C739.932 198.234 765.116 196.625 791.151 200.128C804.696 202.401 811.71 203.715 824.517 208.889C831.528 211.722 842.285 217.041 849.095 219.137C830.755 200.548 802.668 195.245 777.67 195.838Z" fill="#F8F8F8"/>
<path d="M932.286 517C944.35 521.964 942.871 529.204 934.061 537C932.782 535.886 926.762 532.128 925.24 531.205L925.002 529.866C927.163 525.143 929.867 521.565 932.286 517ZM933.707 531.239C934.975 529.247 936.182 527.848 936.305 525.542C935.443 523.955 935.167 523.895 933.321 523.465C931.665 525.516 931.101 525.555 930.74 527.949C931.782 529.829 931.981 529.89 933.707 531.239Z" fill="#F8F8F8"/>
<path d="M461.514 655.995C465.202 656.374 475.844 655.954 480.245 655.917C480.624 670.668 480.607 685.428 480.196 700.178C494.897 685.825 511.027 670.132 526.52 656.65C536.615 656.616 546.709 656.748 556.8 657.045C543.397 671.102 525.75 686.883 511.404 700.51C517.522 708.037 557.631 757.07 563.314 755.739C565.82 752.881 576.187 729.588 578.399 724.811L609.734 657.174C619.326 656.931 629.27 657.135 638.89 657.203C641.614 662.245 644.977 670.249 647.437 675.659C649.785 682.057 656.682 696.059 659.735 702.655L684.963 757.077C675.604 757.063 667.326 757.022 657.962 757.75C655.271 751.134 652.416 744.587 649.398 738.115C632.888 737.965 614.868 737.458 598.473 737.93C596.218 743.681 592.438 751.311 589.793 757.072L528.597 757.269C518.193 746.929 502.546 727.611 492.948 715.932C489.135 719.365 484.598 723.049 480.641 726.409L480.371 757.132C471.783 756.976 463.193 757.059 454.609 757.381C454.675 730.535 455.374 703.754 454.662 676.908C454.497 670.706 454.405 663.414 455.231 657.352C457.102 655.929 458.811 656.252 461.514 655.995ZM625.69 719.618C630.877 719.648 636.065 719.575 641.249 719.4C637.223 709.778 628.756 687.984 624.089 679.325L606.675 719.416C612.809 719.459 619.614 719.367 625.69 719.618Z" fill="#F8F8F8"/>
<path d="M983.023 657.288C991.515 657.034 1000.66 657.202 1009.2 657.209C1024.93 677.788 1044.65 700.082 1059.09 720.905C1058.1 700.226 1058.57 677.963 1058.47 657.156L1083.23 657.244L1083.19 724.242C1083.2 731.013 1083.69 751.024 1082.92 756.482L1081.63 757.096C1074.24 757.079 1066.85 757.123 1059.46 757.228C1054.59 752.345 1045.53 740.159 1041.01 734.39C1029.86 719.966 1018.52 705.698 1006.98 691.589C1008.02 711.442 1007.34 737.136 1007.35 757.346C999.985 756.874 990.255 757.15 982.71 757.163C982.38 731.389 982.792 705.528 982.636 679.746C982.591 672.315 982.508 664.695 983.023 657.288Z" fill="#F8F8F8"/>
<path d="M869.376 657.215C897.679 656.864 927.274 657.02 955.562 657.236C955.773 663.599 955.546 671.078 955.502 677.526C935.476 677.886 915.445 677.975 895.415 677.794C895.272 684.062 895.399 690.782 895.406 697.088C911.499 697.071 930.554 696.59 946.41 697.423C946.529 703.579 946.418 710.033 946.397 716.216C933.921 715.734 918.413 716.278 905.71 716.399L894.96 716.467C894.724 723.106 894.858 730.046 894.893 736.715L957.665 736.752L957.628 757.121C931.03 757.015 895.407 756.159 869.308 757.36L869.376 657.215Z" fill="#F8F8F8"/>
<path d="M756.224 657.221C785.043 656.629 815.877 657.133 844.851 657.247C845.069 663.187 844.684 671.117 844.551 677.206C839.662 682.984 830.741 691.537 825.176 697.222L787.235 735.985L846.094 736.144C846.193 743.114 846.427 750.134 845.947 757.083L790.788 757.081C779.278 757.067 765.455 756.679 754.273 757.504L754.286 737.128C774.013 717.898 792.644 697.161 812.786 678.231C794.532 678.001 774.377 677.794 756.245 678.431L756.224 657.221Z" fill="#F8F8F8"/>
<path d="M703.608 657.227C711.673 656.95 721.005 657.219 729.163 657.265L729.227 757.504C720.808 757.261 712.058 757.468 703.609 757.546C703.218 724.351 703.509 690.47 703.608 657.227Z" fill="#F8F8F8"/>
<path d="M528.626 804.204C546.691 804.01 576.614 799.907 575.316 826.777C574.971 833.901 574.32 836.136 569.603 841.66C559.03 849.992 541.978 847.574 528.29 847.565C527.945 834.324 527.843 817.304 528.626 804.204ZM539.41 839.427C547.171 839.677 554.439 840.604 561.09 836.036C565.185 829.456 567.031 819.554 558.766 815.434C552.481 812.301 546.444 812.997 539.699 813.065C539.488 821.851 539.392 830.639 539.41 839.427Z" fill="#F8F8F8"/>
<path d="M889.588 804.237L900.859 804.271C908.829 812.99 916.27 823.701 924.45 832.966C924.34 823.394 924.341 813.821 924.454 804.249L935.248 804.267C935.523 818.459 935.253 833.27 935.178 847.511C932.796 847.962 926.809 847.736 924.091 847.705C916.846 840.091 907.438 827.527 900.634 818.927L900.572 847.749L889.634 847.559C889.478 833.118 889.463 818.677 889.588 804.237Z" fill="#F8F8F8"/>
<path d="M721.654 804.247C725.718 804.208 730.213 804.067 734.24 804.198C741.311 817.367 748.583 833.817 754.59 847.592C750.84 847.623 746.877 847.724 743.15 847.544L739.277 838.771C735.09 838.667 719.084 837.807 716.387 839.521L715.358 841.062C714.343 843.748 714.136 844.992 711.995 846.906C709.258 848.262 704.674 847.628 701.47 847.438L707.52 834.25C712.119 824.197 716.83 814.195 721.654 804.247ZM719.82 831.189L727.836 831.33C729.78 831.325 734.477 831.625 735.833 830.711C733.707 825.799 730.325 817.808 727.753 813.292C725.12 819.227 722.381 825.235 719.82 831.189Z" fill="#F8F8F8"/>
<path d="M707.52 834.25C710.336 839.152 712.245 836.992 715.358 841.062C714.343 843.748 714.136 844.992 711.995 846.906C709.258 848.262 704.674 847.628 701.47 847.438L707.52 834.25Z" fill="#F8F8F8"/>
<path d="M594.173 804.264L633.458 804.199L633.244 812.985L605.37 813.021L605.481 822.083L629.15 822.156L629.098 829.851C622.369 829.858 615.64 829.902 608.911 829.983C607.655 829.972 607.324 830.158 606.106 830.507C604.788 832.963 605.41 836.447 605.581 839.428C614.692 839.948 625.043 839.661 634.257 839.606L634.127 847.712L594.142 847.724L594.173 804.264Z" fill="#F8F8F8"/>
<path d="M994.379 843.002C988.068 849.117 977.391 850.547 969.252 847.86C963.523 846.01 958.784 841.927 956.105 836.534C940.56 805.182 991.357 789.254 1003.61 818.133L991.879 818.618C987.08 810.851 977.06 810.123 969.976 814.874C967.185 816.726 965.28 819.646 964.71 822.947C963.983 827.122 965.102 831.406 967.778 834.692C970.554 838.095 974.609 840.204 978.988 840.523C985.028 840.927 988.447 838.947 992.649 835.161C994.476 838.875 995.506 839.594 994.379 843.002Z" fill="#F8F8F8"/>
<path d="M648.985 804.276C663.695 804.141 678.405 804.127 693.114 804.234L693.159 812.892L676.86 812.953C676.644 818.997 676.733 825.668 676.69 831.765L676.526 847.63L665.406 847.563L665.313 813.152C659.963 813.096 654.615 812.952 649.27 812.719L648.985 804.276Z" fill="#F8F8F8"/>
<path d="M803.274 804.257L814.51 804.259L814.626 839.438C821.013 839.501 832.918 838.998 838.775 839.825C839.87 842.065 839.448 845.097 839.37 847.729C827.368 847.833 815.365 847.819 803.363 847.686L803.274 804.257Z" fill="#F8F8F8"/>
<path d="M857.461 804.198L868.76 804.182L868.872 847.336C865.037 847.322 861.202 847.344 857.368 847.403C857.305 833.002 857.336 818.6 857.461 804.198Z" fill="#F8F8F8"/>
<path d="M771.138 804.313C774.771 804.483 778.548 804.474 782.198 804.515L782.268 847.706L771.08 847.662C770.996 833.213 771.015 818.763 771.138 804.313Z" fill="#F8F8F8"/>
<path d="M980.359 831.304C980.251 828.833 980.217 828.041 980.621 825.613C982.727 824.038 983.792 824.561 986.889 824.455L1003.48 824.795L1003.51 847.786C999.998 847.786 998.349 848.371 995.635 846.834L994.379 843.002C995.506 839.594 994.477 838.875 992.65 835.161C993.057 833.707 992.968 834.248 992.835 832.712C990.204 831.587 984.154 831.795 980.359 831.304Z" fill="#F8F8F8"/>
<path d="M980.359 831.304C980.251 828.833 980.217 828.041 980.621 825.613C982.727 824.038 983.792 824.561 986.889 824.455L986.723 825.041C986.072 827.446 986.002 827.849 986.153 830.312C984.361 831.448 982.723 831.162 980.359 831.304Z" fill="#F8F8F8"/>
<path d="M485.699 825.535C491.124 825.37 504.929 823.927 508.252 826.823L508.257 828.499C505.996 830.143 467.445 828.426 461.064 828.28C452.434 828.221 445.892 828.221 437.381 827.173C441.564 825.653 477.553 826.025 485.699 825.535Z" fill="#F8F8F8"/>
<path d="M1026.08 824.689C1034.05 824.855 1089.59 825.574 1092.11 827.13C1071.14 827.846 1048.68 829.302 1027.87 829.305C1026.22 828.125 1026.56 827.205 1026.08 824.689Z" fill="#F8F8F8"/>
<path d="M922.435 510C925.335 511 928.652 513.705 931.002 516.05C928.232 520.27 926.313 524.385 923.215 528.402L922.343 529C919.9 527.016 915.256 523.628 914.002 521.055C914.613 519.036 920.001 512 922.435 510ZM923.215 522.294C925.335 520.618 925.284 519.909 925.335 517.265C923.83 515.382 922.442 515.701 920.001 515.588C918.535 518.382 919.102 517.824 919.668 520.618C920.647 521.624 921.666 522.506 923.215 522.294Z" fill="#F8F8F8"/>
<path d="M943.707 498.494C950.413 500.178 947.807 516.69 941.647 518.547C939.465 516.856 936.831 515.189 934.516 513.638C937.283 508.417 940.353 503.36 943.707 498.494ZM938.681 510C938.063 510.001 937.002 511.655 937.002 512.286C937.003 512.917 939.183 514 939.802 514C940.42 514 939.406 512.935 939.406 512.304C939.406 511.673 939.3 510 938.681 510Z" fill="#F8F8F8"/>
<path d="M627.283 529.309C628.727 530.264 628.786 530.29 629.384 531.886C627.912 535.503 624.085 534.782 624.299 539.077C625.135 540.559 625.166 540.817 626.547 541.636C627.943 540.994 628.685 538.846 629.712 537.105L630.705 537C631.573 537.981 631.569 538.046 632.726 538.759L632.911 538.156C632.868 538.033 632.825 537.911 632.783 537.79L633.419 538.983C633.469 539.077 633.503 539.179 633.521 539.284L633.626 539.899L629.175 544.661C631.302 546.931 635.258 550.5 635.097 553.796C633.101 554.973 630.784 553.785 630.493 554.097C628.163 556.606 627.403 559.497 623.441 559.189C621.777 558.109 621.626 557.917 620.609 556.176C622.291 554.077 624.155 554.578 625.2 552.583C624.768 550.92 624.774 550.842 623.534 549.779C620.339 549.608 619.099 551.814 616.994 554.122C615.355 552.067 614.799 552.047 614.466 549.713C616.8 546.337 618.327 548.342 618.989 546.038C617.765 544.272 617.526 544.082 615.79 542.843L614.64 542.834C613.126 545.28 613.614 545.974 611.655 546.906C609.768 546.258 608.978 545.013 607.61 543.462C610.036 541.129 612.354 538.704 615.199 536.951C615.978 537.032 616.07 536.898 616.569 537.258C620.951 543.232 624.659 548.509 629.985 553.622C627.919 549.363 621.16 539.648 618.407 535.497C619.153 533.064 624.654 529.484 627.283 529.309Z" fill="#F8F8F8"/>
<path d="M605.716 519C593.651 523.964 595.131 531.204 603.941 539C605.219 537.886 611.24 534.128 612.762 533.205L613 531.866C610.838 527.143 608.134 523.565 605.716 519ZM604.295 533.239C603.026 531.247 601.82 529.848 601.696 527.542C602.558 525.955 602.835 525.895 604.681 525.465C606.337 527.516 606.901 527.555 607.262 529.949C606.219 531.829 606.021 531.89 604.295 533.239Z" fill="#F8F8F8"/>
<path d="M615.566 512C612.667 513 609.349 515.705 607 518.05C609.769 522.27 611.689 526.385 614.787 530.402L615.659 531C618.102 529.016 622.745 525.628 624 523.055C623.389 521.036 618.001 514 615.566 512ZM614.787 524.294C612.667 522.618 612.717 521.909 612.667 519.265C614.172 517.382 615.56 517.701 618.001 517.588C619.467 520.382 618.9 519.824 618.333 522.618C617.354 523.624 616.336 524.506 614.787 524.294Z" fill="#F8F8F8"/>
<path d="M592.949 499C586.243 500.684 588.849 517.196 595.009 519.053C597.191 517.362 599.825 515.695 602.14 514.144C599.373 508.923 596.303 503.866 592.949 499ZM597.975 510.506C598.593 510.507 599.654 512.161 599.654 512.792C599.653 513.423 597.473 514.505 596.854 514.506C596.236 514.506 597.25 513.441 597.25 512.81C597.25 512.178 597.356 510.506 597.975 510.506Z" fill="#F8F8F8"/>
</svg>
