<svg width="1536" height="1024" viewBox="0 0 1536 1024" fill="none" xmlns="http://www.w3.org/2000/svg">
<g clip-path="url(#clip0_2934_1545)">
<path d="M464.358 239.72C481.565 253.024 495.232 261.12 518.123 261.578C516.875 267.033 513.778 271.267 510.544 275.666C501.221 267.494 486.8 260.766 475.089 251.6C470.953 247.381 467.991 244.346 464.358 239.72Z" fill="#090909"/>
<path d="M408.37 141.116C418.139 160.771 426.356 179.265 440.75 196.141C442.705 198.431 446.091 202.662 447.335 205.336C434.287 194.386 427.996 184.821 419.224 170.866C413.554 159.365 411.254 153.251 408.37 141.116Z" fill="#090909"/>
<path d="M801.861 141.116C792.093 160.771 783.875 179.265 769.481 196.141C767.527 198.431 764.14 202.662 762.896 205.336C775.944 194.386 782.235 184.821 791.007 170.866C796.677 159.365 798.977 153.251 801.861 141.116Z" fill="#090909"/>
<path d="M385.492 169.732C387.122 174.8 388.938 179.807 390.935 184.741C394.112 195.354 399.218 208.401 405.598 217.47C413.942 232.566 422.171 244.145 434.447 256.513L436.139 258.418C452.727 277.843 471.965 285.876 491.226 299.433C476.503 308.654 464.429 306.822 451.006 296.022C411.436 264.188 392.195 219.177 385.492 169.732Z" fill="#090909"/>
<path d="M827.466 169.84C825.836 174.908 824.02 179.915 822.022 184.849C818.846 195.462 813.74 208.508 807.359 217.577C799.015 232.673 790.785 244.251 778.509 256.618L776.817 258.524C760.229 277.948 740.99 285.981 721.728 299.538C736.451 308.758 748.526 306.926 761.949 296.127C801.521 264.294 820.763 219.283 827.466 169.84Z" fill="#090909"/>
<path d="M482.805 233.664C499.208 241.081 505.999 241.851 524.015 243.299C522.487 249.738 521.592 254.743 518.331 260.586C506.792 250.897 492.521 244.818 482.805 233.664Z" fill="#090909"/>
<path d="M469.303 259.139C485.677 271.167 492.641 270.858 509.982 276.938C507.711 279.939 504.706 284.13 502.314 286.911C491.538 278.936 478.688 269.949 469.066 260.842L469.303 259.139Z" fill="#090909"/>
<path d="M459.805 267.712C463.558 269.795 467.847 273.373 472.558 276.022C480.864 280.692 489.812 284.28 497.668 289.287C498.476 289.801 498.388 291.326 498.578 292.633C496.448 293.688 495.99 293.623 493.683 293.985C481.335 290.787 467.534 277.44 459.805 267.712Z" fill="#090909"/>
<path d="M727.372 234.635L728.149 235.103C723.668 240.195 699.51 258.15 692.97 258.751C690.833 253.952 689.172 248.128 687.581 243.051C705.218 241.841 711.141 241.704 727.372 234.635Z" fill="#090909"/>
<path d="M743.639 242.09C742.928 250.441 707.2 273.916 699.26 273.645L694.188 262.067C713.918 260.983 728.672 254.91 743.639 242.09Z" fill="#090909"/>
<path d="M741.029 260.515L741.057 261.893C737.004 266.887 713.621 286.244 708.236 285.518C706.421 283.137 705.314 281.236 703.77 278.662C705.214 276.1 713.405 273.824 716.651 272.705C726.109 269.44 732.721 266.25 741.029 260.515Z" fill="#090909"/>
<path d="M751.456 268.129C748.511 277.226 725.116 293.508 715.357 294.596C714.179 292.223 713.918 292.155 714.123 289.451C726.274 281.663 736.431 278.494 751.456 268.129Z" fill="#090909"/>
<path d="M803.705 45.2908C817.287 54.8601 828.568 66.6819 836.227 81.5475C832.9 83.434 831.237 84.6086 827.395 85.3075C821.28 70.416 812.228 58.7973 803.705 45.2908Z" fill="#090909"/>
<path d="M559.334 522.766C564.992 521.863 569.674 522.222 571.455 528.762C570.536 541.107 548.715 551.186 539.261 556.531C538.066 557.207 540.41 573.397 531.456 574.667C518.697 569.95 523.828 556.696 529.82 548.651C538.526 540.027 549.021 529.125 559.334 522.766Z" fill="#090909"/>
<path d="M586.054 507.568C588.902 499.427 590.584 492.698 599.137 488.566C610.914 482.876 627.449 494.841 624.19 507.829C622.857 509.058 621.936 509.934 620.488 511.06C608.969 509.237 591.437 512.707 586.054 507.568Z" fill="#090909"/>
<path d="M644.26 521.759C658.783 522.831 683.473 545.77 687.212 560.179C688.655 565.733 686.769 569.597 683.836 574.011C672.256 573.626 672.454 564.651 672.537 555.639C660.498 550.863 632.319 538.613 644.26 521.759Z" fill="#090909"/>
<path d="M600.098 457.2C606.585 456.318 618.307 457.695 621.426 464.031C618.248 465.125 615.52 463.624 611.678 462.598C600.485 461.53 596.947 463.677 586.383 467.166C591.892 462.386 593.802 460.707 600.098 457.2Z" fill="#090909"/>
<path d="M569.996 589.419C575.975 573.428 591.782 563.299 608.803 564.549C625.826 565.798 639.984 578.129 643.564 594.82C647.144 611.513 639.29 628.567 624.278 636.692C609.267 644.816 590.697 642.063 578.686 629.934C568.137 619.28 564.744 603.463 569.996 589.419Z" fill="#090909"/>
<path d="M483.449 650.383L481.834 646.83C483.668 643.242 495.973 639.635 500.05 642.02C498.767 646.522 489.857 649.495 485.81 651.129L483.449 650.383Z" fill="#090909"/>
<path d="M417.908 546.345C410.489 542.407 402.158 539.057 397.771 531.964C398.055 524.679 406.611 525.026 412.374 524.692C408.036 528.501 407.718 527.626 406.184 532.393C407.249 538.32 413.841 541.432 417.908 546.345Z" fill="#090909"/>
<path d="M449.694 569.65C455.33 569.157 457.851 568.65 462.412 571.876L461.92 572.935C458.193 573.632 456.573 573.485 453.925 576.486C453.629 578.597 453.249 580.613 452.865 582.706L450.89 583.716C445.065 579.57 446.793 574.668 449.694 569.65Z" fill="#090909"/>
<path d="M448.502 460.028C450.305 461.576 461.193 480.116 463.199 483.401C455.035 480.393 449.856 467.985 448.502 460.028Z" fill="#090909"/>
<path d="M465.641 648.319C467.135 656.669 457.102 659.005 450.468 661.928L450.301 660.017C451.651 656.068 461.755 650.704 465.641 648.319Z" fill="#090909"/>
<path d="M746.059 648.933C750.41 651.31 756.22 653.886 758.906 657.838L758.714 659.72C753.856 660.227 747.709 655.279 744.232 652.086L746.059 648.933Z" fill="#090909"/>
<path d="M828.616 652.442C832.351 655.244 837.653 658.854 840.423 662.407L840.445 664.332C836.608 665.753 830.861 664.488 826.755 663.657L824.444 665.593C825.702 672.062 834.571 669.503 829.522 677.063C824.883 679.48 824.291 677.64 820.289 673.969L818.012 674.103L815.794 676.788C817.523 682.351 820.978 679.656 820.989 685.106C818.568 687.94 818.172 688.126 814.547 689.028C811.205 688.597 808.427 687.907 806.348 684.951L806.746 681.488C815.232 676.002 821.786 660.403 828.616 652.442Z" fill="#090909"/>
<path d="M799.402 525.363C804.786 524.976 809.639 524.425 813.669 528.668C815.765 536.917 808.111 538.933 801.894 541.659C800.52 542.412 798.996 543.067 797.563 543.727C800.477 539.673 804.042 539.125 805.476 531.898C803.934 527.845 803.211 528.252 799.402 525.363Z" fill="#090909"/>
<path d="M754.958 568.455C758.851 568.727 759.527 568.683 762.633 570.968C766.218 577.324 764.976 580.366 759.387 585.278C758.386 569.585 752.176 576.553 750.175 571.082L754.958 568.455Z" fill="#090909"/>
<path d="M725.318 651.004C720.976 649.259 716.886 648.142 714.037 644.501L713.831 642.665C718.467 640.917 724.85 642.773 729.647 643.928C729.862 647.25 729.397 647.805 728.101 651.005L725.318 651.004Z" fill="#090909"/>
<path d="M761.934 462.582C762.417 462.961 762.389 463.752 762.582 464.643C760.321 471.799 756.776 476.669 751.704 482.043L751.126 481.535C751.915 478.587 759.882 465.983 761.934 462.582Z" fill="#090909"/>
<path d="M554.954 281.827L555.255 283.9C547.656 297.641 535.08 308.375 521.14 315.339L520.869 314.223C538.344 300.731 540.378 299.114 554.954 281.827Z" fill="#090909"/>
<path d="M427.629 439.32L429.808 438.742C431.217 446.285 433.948 451.991 434.735 459.975C431.083 453.066 429.077 446.937 427.629 439.32Z" fill="#090909"/>
<path d="M792.909 665.479C793.686 669.38 791.252 679.071 790.33 683.488C787.968 677.004 790.462 671.588 792.909 665.479Z" fill="#090909"/>
<path d="M426.508 33C419.183 47.8972 415.801 64.4244 416.684 81.002C418.781 125.875 439.313 156.348 471.347 185.419C523.873 145.235 600.701 140.874 663.551 152.503C691.174 157.613 716.247 169.347 739.29 185.135C774.323 158.142 798.105 112.976 793.851 68.1992C793.401 63.46 786.833 37.56 786.065 35.7871L787.811 37.2295C788.084 37.3396 788.359 37.451 788.636 37.5625C802.33 57.0307 805.037 67.06 805.066 91.6943C801.963 125.123 794.274 142.602 777.597 171.349V171.35C772.296 178.091 767.221 184.62 761.618 191.069L760.49 192.358C751.824 200.256 743.279 208.062 733.551 214.667C712.474 227.858 706.065 230.012 682.248 236.955C687.233 263.86 697.633 286.915 720.271 303.397C752.196 326.638 788.72 284.486 804.066 260.241C812.681 246.806 819.77 232.454 825.202 217.451L825.722 215.998C830.085 202.202 833.529 188.132 836.034 173.882L825.417 174.277L836.034 173.881C837.875 158.459 838.048 147.883 837.936 132.33C837.346 132.319 836.455 132.293 835.342 132.261C836.455 132.293 837.346 132.318 837.936 132.329C836.564 116.998 835.22 105.255 829.498 90.9834L828.93 89.5947L827.395 85.3076C831.07 84.639 832.752 83.535 835.803 81.7891C835.804 81.7911 835.806 81.7929 835.807 81.7949C840.985 91.5529 844.891 101.937 847.427 112.69C857.253 155.584 847.113 207.32 827.41 245.926C822.152 256.224 815.222 267.061 809.043 276.941C812.247 284.133 814.379 290.523 816.918 297.944C843.634 278.07 847.627 268.889 867.75 245.65C867.881 246.302 868.003 246.957 868.119 247.612C875.085 287.589 868.51 332.993 852.64 369.902C849.099 378.134 838.414 401.089 837.913 407.685C836.814 422.116 843.982 446.728 837.969 461.997C833.834 472.497 817.339 487.867 809.488 496.001C808.875 496.635 808.815 503.298 809.122 504.795C809.766 507.946 814.09 508.27 817.092 508.263C830.939 508.225 848.783 517.705 860.6 525.245C878.284 536.528 897.265 554.629 901.47 576.157C908.076 609.968 886.602 652.955 868.034 680.267C850.764 705.668 817.133 743.561 785.875 749.188C760.17 753.814 738.734 737.819 719.137 724.866C714.403 721.737 700.302 718.505 694.387 713.973C686.318 707.787 685.206 695.219 683.629 685.564C658.47 708.355 637.372 718.313 602.332 718.274C575.464 718.245 545.934 704.864 527.287 685.227C526.125 693.27 524.496 703.328 520.22 710.484C515.359 718.424 501.798 718.514 494.886 723.115C465.603 742.605 436.4 765.544 402.031 740.798C358.47 709.434 322.688 660.544 310.085 607.893C300.993 569.908 322.731 541.51 353.932 523.249C370.041 513.791 384.663 510.766 402.589 507.233L403.049 495.769C391.934 488.57 385.091 479.757 377.469 469.035C364.676 451.041 378.809 431.085 373.801 409.422C370.203 393.859 363.392 381.944 357.088 367.368C342.505 333.644 336.017 281.533 343.909 245.516C353.226 258.008 381.389 289.426 394.136 297.189C396.859 288.907 398.047 285.629 402.104 277.711C375.836 233.815 359.142 198.754 359.673 145.719C359.999 113.42 369.847 80.2855 393.749 57.5801C396.243 55.2109 398.711 52.5222 401.916 52.623L402.601 54.8447C402.636 54.8492 402.672 54.8524 402.708 54.8564C398.617 58.2281 397.603 60.3997 394.818 65.0781C389.363 73.9456 386.14 80.559 382.356 90.3545C365.598 140.965 374.652 196.691 398.21 243.664C411.625 270.408 452.075 325.096 486.954 306.304C510.728 293.495 525.573 262.562 530.471 236.984C509.364 231.491 499.686 226.918 480.402 216.287C445.052 190.945 429.537 170.411 414.248 130.346C408.441 113.34 406.982 100.517 406.33 82.8457C407.816 72.0545 412.402 58.4037 413.569 51.6611C416.899 45.6234 424.464 35.7887 426.508 33ZM376.042 574.904C364.723 566.193 353.224 559.06 338.7 559.799C335.103 561.737 331.995 562.971 329.525 566.146L330.388 567.503C361.905 570.715 372.824 589.887 391.778 608.446C410.117 626.403 453.34 708.441 406.049 706.552C375.638 705.335 326.185 624.688 330.997 594.83C334.408 573.671 360.837 585.831 370.98 592.009C358.753 579.278 322.73 552.816 322.621 590.753C322.549 615.163 338.639 644.705 351.049 665.558C360.918 680.51 369.907 693.732 383.605 705.501L384.244 705.322L382.226 700.741C389.166 701.845 413.632 728.926 425.615 718.469C440.395 705.569 426.967 669.918 422.77 655.702C430.389 668.69 435.937 686.965 441.151 701.362C443.654 708.277 442.472 729.449 431.797 727.247L432.41 723.204C428.925 722.567 422.457 725.941 418.926 726.251C414.332 726.653 407.329 725.075 402.801 724.136C428.628 747.478 453.986 736.117 448.466 700.096C441.147 652.315 414.002 605 376.042 574.904ZM820.518 588.38C815.953 593.269 805.914 604.215 802.145 610.165L801.8 610.725C797.069 617.246 791.998 623.754 788.344 630.911C790.225 631.086 792.107 631.248 793.99 631.395C792.107 631.248 790.225 631.086 788.344 630.911C780.995 643.273 777.541 651.475 772.676 663.495L770.49 668.903C765.198 684.102 759.313 711.175 766.372 726.142C775.17 744.795 798.216 732.435 809.764 723.512C796.186 726.981 793.554 728.714 781.259 722.776C780.896 724.844 781.28 725.743 781.769 727.756L780.684 728.556C759.12 724.165 772.799 684.89 779.894 673.155C777.78 682.452 776.335 688.536 775.46 698.045C779.385 688.019 782.144 676.264 785.994 665.897C790.824 652.887 796.334 643.946 803.415 632.013V632.012L806.254 626.998C815.449 613.029 824.151 603.581 835.474 591.116L820.518 588.38ZM847.237 529.15C793.874 499.273 751.258 545.8 727.875 587.828C725.803 591.182 721.811 597.237 720.491 600.661C710.681 620.151 682.176 698.96 713.686 708.29L714.343 707.808C714.205 701.869 706.934 697.9 705.968 693.271C704.047 684.062 705.639 669.703 706.418 660.259C710.086 662.337 712.915 664.318 717.152 664.613C723.843 662.342 723.926 657.538 725.318 651.004L728.1 651.006C725.528 665.593 722.273 690.48 727.46 704.328C731.718 715.686 738.427 719.1 748.634 723.701C742.77 719.202 738.716 716.382 735.478 709.598C725.237 688.137 733.859 652.636 741.292 631.234C746.023 616.891 755.02 602.404 762.884 589.703C762.622 589.675 762.349 589.649 762.064 589.626C762.349 589.649 762.622 589.674 762.884 589.702C771.75 576.099 789.818 556.469 803.25 547.361C822.038 534.62 836.236 532.761 857.721 536.57C854.424 533.847 850.965 531.237 847.237 529.15ZM415.302 522.184C391.259 516.23 374.256 522.158 354.596 535.656C394.097 530.524 407.502 543.645 434.394 570.405C439.599 576.915 444.618 582.919 449.052 589.999C469.701 623.058 486.023 658.848 479.695 700.411C477.7 713.505 470.948 715.777 463.15 723.149C473.229 718.819 480.334 715.399 484.537 704.276C490.029 689.745 486.076 665.482 483.449 650.383L485.809 651.129C486.874 657.431 487.068 662.419 493.339 664.848C497.651 664.578 501.375 661.773 505.118 659.48C507.415 676.975 509.209 691.915 498.011 706.47L497.214 707.496L498.474 708.132C522.903 699.825 508.524 648.459 503.262 630.394C497.431 613.267 492.413 602.916 483.845 586.93C469.862 561.015 444.478 530.378 415.302 522.184ZM881.555 564.838C860.7 550.034 834.291 573.091 820.518 588.379L835.474 591.116C842.661 585.304 851.603 578.667 859.848 574.354L860.644 573.943L864.333 573.852L864.774 574.563C852.088 580.93 849.439 583.205 839.388 593.336C850.884 586.816 872.858 573.689 880.761 591.912C880.999 591.777 881.22 591.652 881.426 591.538C881.633 591.424 881.826 591.321 882.006 591.228C882.728 590.853 883.26 590.634 883.753 590.516L883.937 590.477C883.147 590.629 882.306 591.031 880.761 591.912C886.187 641.972 796.128 757.051 784.367 683.974C783.949 685.17 783.558 686.375 783.192 687.588C780.964 695.008 779.138 706.725 783.329 713.402C793.6 729.764 820.747 706.695 830.341 700.156L829.104 702.109C830.793 700.907 832.454 699.665 834.083 698.384C852.457 683.871 876.882 641.5 883.795 618.721C886.913 608.448 887.908 601.218 889.119 590.686C891.671 569.553 877.274 570.8 862.686 572.434L859.771 572.759L860.75 572.196C870.72 566.547 875.289 570.251 881.737 566.527L881.555 564.838ZM582.106 679.24C569.62 679.822 558.713 680.164 546.233 680.016C551.993 685.44 564.803 696.582 572.803 696.955C575.549 691.74 579.13 683.341 586.797 685.931C586.797 688.374 581.305 696.357 579.394 700.93C597.579 707.014 610.45 707.176 629.101 702.557C637.189 696.609 627.382 691.61 628.676 685.896C632.07 684.384 630.386 684.532 633.883 685.244C636.871 690.275 636.86 692.844 640.927 695.758C647.721 696.177 658.183 687.504 663.281 683.014C664.396 682.029 665.477 681.003 666.517 679.939C653.684 681.296 642.204 680.03 629.342 679.762C613.593 679.433 597.852 679.657 582.106 679.24ZM373.54 607.448C366.113 601.529 354.719 590.61 345.25 596.848C332.867 617.015 377.748 685.52 398.455 696.206C427.519 711.203 419.47 671.157 410.326 659.898L409.844 656.411C409.017 651.722 405.702 650.245 405.67 646.021C397.855 631.57 392.461 622.917 381.003 611.032C377.754 614.439 375.515 617.736 371.123 618.512L368.093 617.767C366.582 614.765 366.853 616.093 367.632 612.387C369.928 609.751 370.588 609.359 373.54 607.448ZM865.556 593.468C856.643 592.632 844.587 602.044 837.867 607.486C842.905 610.544 846.247 611.158 846.119 617.398C839.919 622.453 834.813 615.104 830.897 610.791C818.128 624.476 809.969 637.792 803.87 655.351C809.339 655.4 808.811 656.068 812.537 660.508L814.602 660.504C816.821 657.869 816.182 659.034 816.51 655.17C812.969 649.097 811.913 653.606 808.056 648.871C809.781 644.604 808.662 645.644 812.06 643.517C816.816 643.732 821.625 648.196 825.574 651.234C822.854 655.786 807.224 679.287 806.747 681.487L806.348 684.95L799.739 681.098C791.836 683.841 793.112 700.007 807.45 698.912C830.249 697.171 884.593 604.754 865.556 593.468ZM831.968 549.201C815.359 541.158 783.199 575.667 773.175 588.011C768.741 594.019 765.59 598.173 761.952 604.779C756.994 613.421 752.662 621.048 748.922 630.366C747.194 635.371 744.668 641.623 744.442 646.767C744.755 647.208 745.705 648.642 746.059 648.933L744.231 652.086C740.507 656.358 740.46 664.633 740.062 670.219C746.072 673.284 753.341 677.248 759.4 679.929C761.112 674.235 762.785 668.528 764.417 662.812C768.809 652.388 774.052 642.001 779.033 631.814C789.589 613.389 795.826 603.709 809.144 587.14C822.603 577.673 816.18 571.316 806.618 563.88L807.081 562.551C819.414 558.351 819.051 569.316 824.154 571.505C830.447 564.357 823.174 561.004 819.937 555.015C826.156 552.206 827.483 556.755 834.487 558.758L835.202 557.138C834.625 553.103 834.683 552.144 831.968 549.201ZM419.041 566.543C412.482 560.538 389.317 540.81 378.712 552.477C376.83 554.547 377.401 556.982 377.628 559.57L378.816 560.105C384.415 555.642 387.358 551.572 394.431 554.578C393.069 558.308 387.956 558.387 385.983 563.624C385.889 567.305 385.729 568.046 387.735 571.065C391.92 570.813 392.602 564.561 399.54 561.591C403.618 561.483 402.131 561.322 406.024 563.462L405.712 564.496C388.524 572.218 395.059 580.06 405.273 591.234C416.321 603.81 425.687 617.769 433.139 632.76C441.739 647.377 447.117 663.508 452.459 679.477C457.78 677.243 466.002 674.179 470.451 670.916C473.542 664.174 469.7 653.326 467.703 646.383C459.171 615.781 442.327 588.146 419.041 566.543ZM803.87 655.351C802.607 660.127 798.28 670.183 800.731 674.307C801.807 674.312 802.371 674.483 803.197 674.087C806.148 671.018 807.516 670.612 808.311 666.893C805.165 661.821 803.981 661.478 803.87 655.351ZM778.875 671.8C778.999 671.931 779.122 672.07 779.242 672.218C779.122 672.07 778.999 671.931 778.875 671.8ZM778.042 671.054H778.042H778.042ZM652.614 568.097C626.085 535.994 583.461 536.432 558.262 569.35C554.077 576.401 552.32 579.8 549.096 587.361C546.751 597.521 545.312 604.942 546.287 615.47C547.719 631.095 555.349 645.494 567.473 655.451C594.381 677.24 631.676 672.01 653.517 645.758C670.596 625.145 669.47 588.492 652.614 568.097ZM522.47 604.562C518.02 633.828 529.201 659.291 559.483 666.919C550.721 655.322 535.769 649.328 531.038 632.117C528.539 623.032 531.013 609.579 522.47 604.562ZM687.926 604.768C679.93 616.844 682.092 632.946 672.856 646.431C669.474 651.369 652.902 665.341 652.667 666.22L652.998 666.559C679.963 660.403 694.706 632.482 689.306 606.165L687.926 604.768ZM620.45 454.441C595.237 432.539 581.205 470.051 571.929 485.008C568.547 490.425 564.576 495.45 560.089 499.994C547.448 512.942 528.577 524.55 518.046 537.122L517.551 537.722L510.976 545.557C512.556 538.812 513.897 534.814 516.265 528.266C499.055 526.532 492.968 524.833 477.826 516.942C458.102 504.331 446.561 490.281 433.46 471.314C441.368 495.338 455.46 513.129 476.658 527.19C476.706 527.105 476.753 527.019 476.798 526.931V526.932C476.754 527.019 476.706 527.105 476.658 527.19C485.348 535.758 497.053 533.07 502.314 546.401C500.06 544.797 498.063 543.386 496.105 542.054C495.452 541.61 494.804 541.175 494.152 540.744C492.521 539.668 490.866 538.621 489.061 537.538C488.339 537.105 487.593 536.666 486.815 536.218C486.426 535.993 486.028 535.766 485.622 535.536C488.916 538.851 493.691 544.58 496.741 547.519C502.547 553.113 512.645 576.834 518.019 579.347C523.74 580.49 531.681 588.322 537.845 592.567C549.288 557.065 563.018 542.233 599.785 535.19C640.329 535.118 662.489 553.554 673.706 592.021C676.398 590.472 680.833 588.082 682.961 585.953C687.642 581.277 693.406 580.149 698.492 576.699C703.844 565.507 707.621 557.181 715.051 547.113L715.05 547.112C719.104 543.161 723.039 538.71 726.875 534.512C722.474 537.597 716.754 541.927 711.993 544.071L711.992 543.43C716.84 535.238 730.839 531.368 738.666 525.049C757.102 510.165 773.448 493.897 779.388 470.344C756.766 502.216 738.644 525.5 696.064 527.829L702.429 547.337C684.196 523.944 667.944 517.015 648.278 495.949C637.236 485.008 631.764 464.269 620.45 454.441ZM885.271 590.41C885.84 590.44 886.524 590.518 887.474 590.59C886.524 590.518 885.84 590.44 885.271 590.41ZM884.484 590.408L884.3 590.423C884.482 590.404 884.667 590.396 884.863 590.397C884.733 590.397 884.607 590.401 884.484 590.408ZM737.066 589.217C737.849 589.256 738.656 589.286 739.479 589.311C739.067 589.298 738.66 589.285 738.257 589.27L737.066 589.217ZM734.793 589.074V589.075V589.074ZM728.177 587.944C728.386 588.02 728.608 588.093 728.842 588.161C728.608 588.093 728.386 588.02 728.177 587.944ZM477.494 524.912C477.426 525.222 477.346 525.524 477.252 525.816C477.346 525.524 477.426 525.221 477.494 524.911V524.912ZM755.169 397.686C754.714 409.924 755.387 420.179 751.692 432.059C739.805 470.269 702.754 468.538 670.77 462.403C687.559 472.308 703.07 472.577 721.919 472.305C708.793 477.476 695.297 477.563 681.571 474.907C661.89 468.093 660.725 464.634 646.97 449.123C652.197 460.404 653.787 464.188 662.649 473.29C657.25 469.68 654.453 467.968 649.693 463.317C645.333 459.06 640.363 446.378 637.467 445.758C635.489 450.296 636.529 457.302 638.27 461.895C645.711 481.535 657.943 494.414 677.217 502.911C678.523 503.489 679.856 504.007 681.209 504.464C681.234 504.411 681.257 504.354 681.281 504.292C681.257 504.353 681.234 504.411 681.209 504.464C691.021 506.755 715.25 508.899 723.323 501.589L728.218 500.724L728.314 502.056C721.875 506.726 711.534 510.364 703.566 512.007L702.802 512.159C699.784 512.764 696.163 512.913 694.262 514.697C697.923 515.909 699.525 515.747 703.323 515.743C748.388 513.271 775.677 463.576 776.565 422.787L765.134 422.592C761.706 439.163 757.48 447.152 744.641 458.76C758.408 436.973 763.156 423.165 755.169 397.686ZM438.352 395.069C435.226 408.822 433.643 421.333 436.464 435.327C446.405 484.632 471.295 517.571 523.711 515.263C503.322 511.31 496.082 510.838 479.032 498.763C499.894 507.399 514.229 509.772 536.222 501.73C554.045 495.212 580.763 466.116 574.423 446.349L573.084 445.154C565.491 461.676 566.39 460.794 550.013 472.979C552.496 470.017 557.049 464.902 558.853 461.766C561.153 456.861 563.666 451.724 565.777 446.767C543.362 476.921 525.799 481.688 488.696 472.668C511.358 472.259 522.654 472.111 543.595 461.709C508.074 468.171 466.999 471.207 457.885 425.737C456.002 416.348 457.44 406.858 455.531 397.617C449.612 423.691 451.176 437.086 467.572 458.552C435.477 431.462 452.569 408.02 438.352 395.069ZM421.617 479.548C417.903 493.472 430.941 508.097 442.606 513.81C442.485 513.638 422.435 481.348 421.617 479.548ZM788.906 481.642C785.724 488.105 782.336 495.35 778.245 501.244C775.515 505.176 771.569 508.251 769.207 512.401L770.066 513.386C779.467 508.427 793.774 494.096 789.951 482.678L788.906 481.642ZM681.598 503.063C681.542 503.367 681.481 503.638 681.417 503.872C681.481 503.638 681.542 503.367 681.598 503.063ZM682.21 485.415H682.209H682.21ZM352.861 274.243C352.921 282.507 353.074 289.682 353.606 297.942C354.2 316.804 360.794 342.146 367.909 359.797C374.908 377.167 385.49 397.025 387.545 415.55C388.815 426.983 385.962 442.72 384.842 454.745C389.553 464.902 396.605 473.639 403.97 481.971C408.393 473.959 414.082 462.257 416.958 453.701C413.69 449.05 403.728 435.152 402.19 430.452C397.362 415.689 393.552 400.179 388.697 385.194C379.006 355.287 366.589 333.941 362.754 302.447C372.985 311.156 387.245 322.531 395.956 332.237L395.77 317.16C389.449 310.748 379.101 301.789 372.128 295.812C365.734 288.675 359.133 281.46 352.861 274.243ZM859.392 274.317C844.012 292.07 833.265 301.752 816.726 318.189L815.405 332.386C824.517 322.883 838.764 311.537 849.067 301.547C845.385 332.648 830.311 360.073 821.624 389.895C818.537 400.493 813.884 409.693 812.443 420.676C810.017 429.802 806.841 435.224 801.8 443.211C800.326 445.698 798.798 448.206 797.348 450.741C796.478 452.262 795.637 453.794 794.851 455.336C796.554 458.712 798.207 461.976 799.812 465.229C801.15 467.939 802.454 470.641 803.726 473.394C804.489 475.045 805.241 476.715 805.981 478.415C806.474 479.548 806.962 480.696 807.445 481.86C808.132 481.091 808.774 480.369 809.381 479.68C809.988 478.991 810.559 478.335 811.106 477.7C811.652 477.066 812.174 476.453 812.68 475.847C813.692 474.635 814.641 473.455 815.608 472.202C816.575 470.95 817.559 469.625 818.639 468.124C819.179 467.374 819.742 466.579 820.34 465.728C828.973 455.354 824.348 438.98 823.706 424.028L823.657 422.587L823.725 421.368C825.301 395.958 835.678 382.633 844.089 359.18C854.505 330.139 859.035 304.949 859.392 274.317ZM681.779 476.633C681.822 477.102 681.864 477.625 681.903 478.192C681.864 477.625 681.822 477.102 681.779 476.633ZM783.055 389.734C784.31 419.562 784.706 431.369 776.61 460.417L777.409 460.743L777.524 460.661C785.019 441.556 791.771 411.106 784.665 391.335L783.055 389.734ZM630.149 427.688C626.669 430.581 623.577 432.407 622.322 436.573C622.891 437.944 623.028 438.518 623.842 439.753C627.034 436.616 629.409 434.658 631.278 430.516C630.935 428.19 631.511 428.955 630.149 427.688ZM427.82 388.536C420.806 396.813 425.325 428.363 427.628 439.32L429.807 438.742C423.881 418.851 429.535 405.278 427.82 388.536ZM580.745 427.513C581.08 433.009 584.239 435.977 589.14 438.072C588.679 432.648 586.415 429.061 580.745 427.513ZM605.703 260.035C596.982 281.501 590.902 295.03 573.99 311.816L582.598 326.787C578.563 323.264 575.236 320.065 570.533 317.467C559.672 326.402 541.56 337.724 539.922 351.261C539.231 356.978 541.171 362.894 540.805 367.925C534.874 363.92 532.624 359.484 531.247 352.572C531.036 351.509 530.852 350.439 530.689 349.367L518.136 354.732C500.505 359.772 496.203 366.423 508.43 382.668C513.809 389.656 519.813 393.24 526.978 398.254C514.1 393.255 509.013 390.9 499.522 380.816C495.131 374.122 494.027 370.673 491.3 363.295C486.416 363.707 482.044 364.094 477.193 364.802C465.949 365.328 454.689 365.443 443.436 365.145C450.183 378.784 453.138 380.525 466.155 388.03C440.603 380.944 445.925 377.035 429.934 359.08C444.656 400.911 463.168 389.33 499.391 400.143C520.772 406.526 559.17 445.321 575.062 410.782C578.472 403.108 577.868 389.685 577.832 381.184C581.065 362.309 580.332 355.323 573.223 337.278C588.583 354.888 587.483 368.29 587.422 390.762C587.28 396.033 587.266 399.769 587.46 403.687C587.483 404.15 587.51 404.616 587.539 405.087C587.7 407.715 587.955 410.509 588.328 413.963C589.812 415.98 590.945 417.565 592.106 418.924C592.203 419.037 592.3 419.149 592.398 419.26C592.593 419.48 592.789 419.695 592.989 419.904C593.788 420.743 594.641 421.504 595.661 422.248C595.788 422.341 595.918 422.434 596.05 422.526C596.98 423.174 598.049 423.814 599.33 424.488C599.512 424.584 599.7 424.681 599.892 424.778C610.713 427.747 616.449 423.616 622.437 415.259C624.403 404.796 623.871 392.597 623.797 381.82C625.119 363.067 626.065 354.448 637.053 338.338C635.958 342.222 633.23 350.978 633.048 354.842C632.295 370.758 631.109 399.395 638.054 413.517C646.22 430.121 669.337 425.006 680.967 416.42C690.96 410.111 699.94 404.247 711.151 400.434C733.023 392.993 760.561 398.331 774.019 375.379C777.031 370.24 780.316 364.858 780.977 358.785C773.996 368.644 763.661 387.281 749.967 385.297C754.201 379.847 758.7 383.213 765.643 369.82C766.437 368.27 767.181 366.694 767.873 365.096C749.244 365.427 738.429 365.177 720.041 362.847C712.937 383.955 706.565 388.941 686.023 397.229C688.46 394.204 697.556 388.457 703.151 381.966C707.559 376.291 712.389 366.565 707.697 359.919C704.623 357.878 684.635 350.807 681.691 350.57L679.225 358.939C677.055 363.185 673.149 368.399 670.314 372.436C674.534 357.583 677.217 349.975 665.266 337.855C657.794 331.06 648.778 323.299 640.869 317.055C636.434 320.349 633.253 322.886 629.119 326.542C631.749 321.621 634.496 316.2 637.489 311.553C621.352 294.404 614.628 281.593 605.703 260.035ZM772.296 398.065C766.904 401.209 765.888 416.976 765.134 422.591L776.565 422.787C776.643 419.214 776.584 415.639 776.389 412.07C776.091 407.425 775.857 401.171 772.296 398.065ZM413.659 363.91C409.198 377.079 402.987 400.654 409.169 413.69C411.226 405.857 418.796 369.255 413.659 363.91ZM797.736 364.747C795.9 372.489 799.265 407.676 803.006 412.891L803.737 413.002C806.403 402.541 805.71 371.75 797.736 364.747ZM377.918 330.266C379.586 338.447 389.045 374.062 393.223 377.722L394.101 377.317C397.86 356.228 397.328 342.462 377.918 330.266ZM833.292 330.48C813.915 343.408 812.69 354.839 818.679 376.331L820.091 375.953C822.925 368.621 833.795 337.012 833.292 330.48ZM587.645 237.357C560.299 310.806 506.842 351.11 426.623 344.229C413.462 343.1 420.999 306.366 418.529 300.415C416.389 301.791 416.413 303.488 415.409 306.383C413.786 316.01 412.049 332.643 417.828 341.36C421.965 347.602 438.455 349.253 445.86 350.118C511.359 357.762 579.271 313.534 587.616 245.671C588.002 242.538 588.152 240.497 587.645 237.357ZM624.07 238.51C627.116 272.028 639.671 298.518 665.845 320.342C692.606 342.425 726.936 353.176 761.509 350.303C790.804 347.585 801.777 346.224 797.672 313.326C797.229 310.025 796.632 306.745 795.885 303.498L793.452 299.676L792.074 299.867C791.355 311.865 798.518 331.825 789.102 340.979C782.205 347.684 758.732 345.2 749.538 344.206C712.011 340.479 677.572 321.778 654.001 292.334C645.94 282.304 638.749 270.176 633.336 258.476C631.627 254.78 626.342 240.511 624.07 238.51ZM655.901 281.742C661.775 292.974 677.345 311.065 690.098 314.417C680.528 306.845 671.795 299.43 663.695 290.254C661.89 288.209 657.735 283.018 655.901 281.742ZM764.982 204.542C764.701 204.907 764.451 205.22 764.231 205.499C764.451 205.22 764.7 204.907 764.981 204.542L767.028 201.138L764.982 204.542ZM619.46 165.283C604.999 165.628 581.231 164.337 567.502 166.111C538.822 169.453 510.535 177.519 489.466 198.271C502.918 193.189 515.823 186.991 529.26 182.011C565.073 168.736 601.368 166.417 638.888 171.466C658.409 174.742 668.517 176.635 686.974 184.092C697.078 188.175 712.581 195.84 722.397 198.86C695.966 172.071 655.486 164.429 619.46 165.283ZM789.218 169.52C788.955 170.026 788.69 170.524 788.426 171.015C788.69 170.523 788.955 170.025 789.218 169.519V169.52ZM790.486 167.031H790.485H790.486ZM802.688 141.557L802.19 142.484C802.358 142.167 802.523 141.857 802.687 141.557L803.173 140.684C803.014 140.965 802.852 141.256 802.688 141.557ZM804.789 138.093L804.551 138.426C804.405 138.644 804.257 138.874 804.106 139.114H804.105C804.256 138.874 804.405 138.644 804.551 138.426C804.636 138.311 804.714 138.2 804.788 138.093L804.993 137.78C804.93 137.881 804.862 137.986 804.789 138.093ZM821.448 132.018C820.578 132.019 819.712 132.023 818.859 132.034C818.432 132.04 818.009 132.046 817.59 132.055L816.348 132.084C817.982 132.039 819.708 132.019 821.448 132.017V132.018Z" fill="#090909"/>
<path d="M842.287 628.13C859.674 635.284 857.542 645.718 844.845 656.953C843.003 655.347 834.326 649.933 832.132 648.601L831.789 646.672C834.905 639.865 838.802 634.709 842.287 628.13ZM844.335 648.651C846.163 645.78 847.901 643.764 848.08 640.441C846.837 638.153 846.439 638.066 843.779 637.447C841.392 640.403 840.579 640.459 840.059 643.91C841.561 646.619 841.848 646.707 844.335 648.651Z" fill="#090909"/>
<path d="M828.091 618.042C832.27 619.483 837.051 623.381 840.436 626.76C836.445 632.842 833.679 638.773 829.214 644.562L827.958 645.424C824.437 642.564 817.745 637.681 815.937 633.974C816.817 631.065 824.583 620.924 828.091 618.042ZM829.214 635.759C832.27 633.343 832.197 632.322 832.27 628.511C830.101 625.798 828.1 626.258 824.583 626.095C822.47 630.122 823.286 629.316 824.103 633.343C825.514 634.794 826.982 636.064 829.214 635.759Z" fill="#090909"/>
<path d="M858.746 601.46C868.41 603.887 864.654 627.685 855.777 630.359C852.632 627.922 848.838 625.52 845.501 623.285C849.489 615.761 853.912 608.473 858.746 601.46ZM851.504 618.042C850.613 618.042 849.083 620.426 849.083 621.336C849.084 622.246 852.227 623.807 853.119 623.807C854.01 623.807 852.547 622.271 852.547 621.361C852.547 620.452 852.396 618.042 851.504 618.042Z" fill="#090909"/>
<path d="M402.729 645.868C404.81 647.246 404.894 647.282 405.756 649.582C403.635 654.796 398.119 653.756 398.428 659.947C399.633 662.082 399.678 662.454 401.667 663.633C403.679 662.709 404.749 659.613 406.229 657.105L407.66 656.952C408.911 658.366 408.905 658.46 410.573 659.488L410.839 658.62C410.778 658.442 410.716 658.268 410.657 658.094L411.604 659.875C411.654 659.968 411.689 660.069 411.707 660.174L411.871 661.13L405.455 667.994C408.521 671.266 414.222 676.408 413.989 681.159C411.112 682.855 407.773 681.143 407.354 681.593C403.997 685.209 402.901 689.375 397.191 688.931C394.793 687.374 394.576 687.097 393.11 684.588C395.535 681.564 398.219 682.285 399.726 679.41C399.104 677.014 399.111 676.901 397.325 675.37C392.72 675.124 390.934 678.303 387.901 681.63C385.538 678.667 384.735 678.639 384.255 675.274C387.62 670.408 389.821 673.299 390.776 669.978C389.011 667.433 388.667 667.16 386.165 665.373L384.508 665.361C382.326 668.885 383.029 669.887 380.205 671.229C377.486 670.296 376.348 668.502 374.376 666.266C377.873 662.904 381.213 659.409 385.312 656.882C386.436 656.999 386.567 656.806 387.286 657.325C393.602 665.934 398.947 673.539 406.623 680.908C403.645 674.77 393.904 660.769 389.938 654.787C391.011 651.28 398.94 646.121 402.729 645.868Z" fill="#090909"/>
<path d="M371.647 631.012C354.259 638.167 356.391 648.601 369.089 659.835C370.931 658.23 379.608 652.815 381.801 651.484L382.144 649.554C379.029 642.747 375.132 637.591 371.647 631.012ZM369.599 651.533C367.771 648.662 366.032 646.646 365.854 643.323C367.096 641.035 367.494 640.949 370.155 640.329C372.541 643.286 373.354 643.341 373.874 646.792C372.372 649.501 372.085 649.589 369.599 651.533Z" fill="#090909"/>
<path d="M385.843 620.924C381.664 622.365 376.883 626.263 373.497 629.642C377.488 635.724 380.254 641.655 384.719 647.445L385.976 648.306C389.496 645.446 396.189 640.563 397.997 636.856C397.116 633.947 389.351 623.806 385.843 620.924ZM384.719 638.642C381.664 636.226 381.737 635.204 381.664 631.393C383.833 628.68 385.833 629.14 389.351 628.977C391.464 633.004 390.647 632.199 389.83 636.226C388.42 637.676 386.951 638.947 384.719 638.642Z" fill="#090909"/>
<path d="M353.248 602.189C343.583 604.616 347.339 628.413 356.216 631.088C359.361 628.651 363.155 626.249 366.492 624.014C362.504 616.49 358.081 609.202 353.248 602.189ZM360.49 618.771C361.381 618.771 362.911 621.155 362.911 622.065C362.91 622.975 359.767 624.535 358.875 624.536C357.984 624.536 359.447 623 359.447 622.09C359.447 621.181 359.598 618.771 360.49 618.771Z" fill="#090909"/>
</g>
<defs>
<clipPath id="clip0_2934_1545">
<rect width="1536" height="1024" fill="white"/>
</clipPath>
</defs>
</svg>
